# xmcd
#
# Track frame offsets: 
#        150
#        10061
#        20946
#        33533
#        45766
#        58185
#        70558
#        83756
#        95915
#        107910
#        118453
#        127331
#        137691
#        149423
#        162894
#        173177
#        184856
#        194766
#        207444
#        219486
#        230478
#        243824
#        259086
#        271990
#
# Disc length: 3797 seconds
#
# Revision: 0
# Processed by: cddbd v1.5.2PL0 Copyright (c) Steve Scherf et al.
# Submitted via: ExactAudioCopyFreeDBPlugin 1.0
#
DISCID=6f0ed318
DTITLE=Various Artist - La Grande Histoire de la Musique Country
DYEAR=2009
DGENRE=Country
TTITLE0=Johnny Cash - Hey Porter
TTITLE1=Johnny Cash - Cry, Cry, Cry
TTITLE2=Johnny Cash - Folsom Prison Blues
TTITLE3=Johnny Cash - I Walk The Line
TTITLE4=Hank Williams - Haw-Liga
TTITLE5=Hank Williams - I'm So Lonesome I Could Cry
TTITLE6=Hank Williams - Wedding Bells
TTITLE7=Hank Williams - Lovesick Blues
TTITLE8=Gene Autry - Dixie Cannon Ball
TTITLE9=Gene Autry - Down In The Valley
TTITLE10=Gene Autry - You Are My Sunshine
TTITLE11=Gene Autry - San Antonio Rose
TTITLE12=Bob Wills - Orange Blossom Special
TTITLE13=Bob Wills - New Faded Love
TTITLE14=Bob Wills - With Tears In My Eyes
TTITLE15=Bob Wills - An Old Flame
TTITLE16=Bill Monroe - Bluegrass Ramble
TTITLE17=Bill Monroe - I'll Meet You in Church Sunday Morning
TTITLE18=Bill Monroe - Pike Country Breakdown
TTITLE19=Bill Monroe - I Hope You Have Learned
TTITLE20=Jimmie Rodgers - Sleep Baby Sleep
TTITLE21=Jimmie Rodgers - Blue Yodel #1 ("T" for Texas)
TTITLE22=Jimmie Rodgers - In The Jailhouse Now #2
TTITLE23=Jimmie Rodgers - T.B. Blues
EXTD=
EXTT0=
EXTT1=
EXTT2=
EXTT3=
EXTT4=
EXTT5=
EXTT6=
EXTT7=
EXTT8=
EXTT9=
EXTT10=
EXTT11=
EXTT12=
EXTT13=
EXTT14=
EXTT15=
EXTT16=
EXTT17=
EXTT18=
EXTT19=
EXTT20=
EXTT21=
EXTT22=
EXTT23=
PLAYORDER=
